<svg width="60" height="60" viewBox="0 0 60 60" fill="none" xmlns="http://www.w3.org/2000/svg">
<g clip-path="url(#clip0_43_257)">
<path fill-rule="evenodd" clip-rule="evenodd" d="M15.1149 31.1424C15.3961 25.5888 16.4506 20.3515 18.2081 16.0281H10.4401C6.43305 20.4569 3.9023 26.2214 3.65625 32.5483H13.5332C14.0253 32.0211 14.5526 31.529 15.1149 31.1424ZM12.7599 13.7434H19.2274C20.3171 11.5993 21.5824 9.70123 23.0587 8.26011C19.1923 9.31459 15.6773 11.2127 12.7599 13.7434ZM28.8584 7.41652C26.2925 7.94376 23.832 10.123 21.7933 13.7434H28.8584V7.41652ZM28.8584 16.0281H20.6686C18.9462 19.9649 17.8215 24.8155 17.47 30.0176C20.7037 29.0334 24.2186 30.0879 26.3628 32.5483H28.8584V16.0281ZM31.1431 16.0281V32.5483H42.7424C42.6369 28.5062 42.0745 24.5694 41.0552 21.0193L37.9269 16.0281H31.1431ZM31.1431 13.7434H36.5561C35.5367 11.9859 34.6932 10.3339 34.2011 8.89279C33.1466 8.15466 32.1273 7.66257 31.1431 7.45167V13.7434ZM36.31 8.04921C37.1888 10.58 40.3874 15.8524 42.1097 18.4183C44.2889 15.0791 48.4366 8.8225 48.4366 6.32689C48.4366 2.7768 45.6598 0 42.1097 0C37.2591 0 35.1149 5.06151 36.1694 7.69772C36.2397 7.80316 36.2749 7.90861 36.31 8.04921ZM39.825 6.32689C39.825 7.62742 40.8794 8.71705 42.1097 8.71705C45.2731 8.71705 45.2731 3.90158 42.1097 3.90158C40.8794 3.90158 39.825 5.02636 39.825 6.32689ZM46.3628 16.0281L43.3399 20.7381C44.3592 24.3585 44.9216 28.4359 44.9919 32.5483H56.3452C56.0991 26.3972 53.6387 20.5975 49.491 16.0281H46.3628ZM56.3452 34.833H44.9919C44.8865 41.1599 43.7265 46.9244 41.8636 51.4938H49.4559C53.4981 47.065 56.064 41.2302 56.3452 34.833ZM39.368 51.4938C41.4067 46.8893 42.6018 41.0545 42.7424 34.833H31.1431V51.4938H39.368ZM28.8584 51.4938V34.833H27.8039C28.2257 35.8875 28.4717 37.0123 28.4717 38.2425C28.4717 41.3357 25.0271 46.5729 21.9339 51.4938H28.8584ZM20.7389 49.1388C22.9181 45.6942 26.2222 40.5272 26.2222 38.2425C26.2222 34.7276 23.4454 31.9156 19.8953 31.9156C18.8408 31.9156 17.8566 32.1968 17.013 32.6538C16.4858 33.0053 15.5719 33.4622 15.1149 34.2004C15.0447 34.3409 14.9744 34.4464 14.8689 34.5518C14.1308 35.5712 13.709 36.8366 13.709 38.2425C13.709 40.8084 17.7863 47.1002 19.8953 50.4394C20.1765 50.0176 20.4577 49.5958 20.7389 49.1388ZM19.8953 40.6327C21.2309 40.6327 22.2854 39.5782 22.2854 38.2425C22.2854 35.3603 17.6106 35.1494 17.6106 38.2425C17.6106 39.6134 18.5947 40.6327 19.8953 40.6327ZM17.2942 50.5448C14.0956 45.4482 11.4243 41.0193 11.4243 38.2425C11.4243 37.0475 11.6703 35.8875 12.1273 34.833H3.65625C3.9023 41.2302 6.4682 47.065 10.5455 51.4938H17.8918C17.6809 51.2127 17.5051 50.8963 17.2942 50.5448ZM19.1923 53.7786H12.9005C15.7828 56.239 19.2274 58.1019 22.9884 59.1213C21.5824 57.7504 20.2819 55.9578 19.1923 53.7786ZM21.7582 53.7786C23.7617 57.2935 26.2573 59.4728 28.8584 59.9648V53.7786H21.7582ZM31.1431 53.7786V60C33.7441 59.5079 36.2046 57.3638 38.2432 53.7786H31.1431ZM40.8091 53.7786C39.7195 55.9227 38.4541 57.7153 37.013 59.1213C40.774 58.1019 44.2186 56.239 47.1009 53.7786H40.8091ZM19.8953 42.9174C17.3645 42.9174 15.361 40.8436 15.361 38.2425C15.361 35.7469 17.3997 33.7083 19.8953 33.7083C22.4612 33.7083 24.5701 35.7469 24.5701 38.2425C24.5701 40.8084 22.4612 42.9174 19.8953 42.9174ZM42.1097 10.9666C39.6141 10.9666 37.5754 8.89279 37.5754 6.32689C37.5754 3.72583 39.6141 1.65202 42.1097 1.65202C44.6756 1.65202 46.7845 3.72583 46.7845 6.32689C46.7845 8.89279 44.6756 10.9666 42.1097 10.9666Z" fill="#3D511D"/>
</g>
<defs>
<clipPath id="clip0_43_257">
<rect width="60" height="60" fill="white"/>
</clipPath>
</defs>
</svg>
