<svg width="104" height="60" viewBox="0 0 104 60" fill="none" xmlns="http://www.w3.org/2000/svg">
<path d="M24.9951 6.39228C25.7867 6.98275 26.5347 7.54008 27.2196 8.18224C27.5256 8.46976 27.9367 8.89854 27.9584 9.30786C27.9858 9.8785 27.1782 10.3667 26.38 10.5069C24.3746 10.8672 22.0891 10.2334 19.1991 8.50861C16.6592 6.98788 14.3278 5.14432 12.2224 3.04875C15.2704 2.79053 18.4676 2.96105 21.8006 3.55824C22.1024 3.91887 22.4094 4.27879 22.762 4.60254C23.4735 5.25699 24.2473 5.83357 24.9951 6.39228Z" fill="#F9A80B"/>
<path d="M61.2542 54.8314C60.6352 54.93 59.6867 54.5049 58.8661 53.757C56.2537 51.3739 53.951 48.6283 51.819 46.0219C48.3086 41.7293 44.8417 37.2895 41.5118 32.825C40.6306 31.6409 39.6299 30.2979 39.1537 28.8216C38.924 28.0946 38.9009 27.5132 39.0902 27.0981C39.4559 26.2989 40.487 26.159 41.5427 26.308C42.1666 26.3961 42.8045 26.587 43.3168 26.8014C43.9631 27.0731 44.5957 27.3215 45.2121 27.5633C48.1646 28.7245 50.7161 29.7283 52.7629 32.415C53.9833 34.0134 54.8313 35.7738 55.7275 37.6362C56.1338 38.4805 56.5428 39.3266 56.9851 40.1575L58.1453 42.3028C59.1877 44.2157 60.1865 46.0953 60.9941 48.0616L61.1002 48.3167C61.7438 49.8749 62.9422 52.7757 62.1236 54.1672C61.8919 54.5606 61.6084 54.7777 61.2542 54.8314Z" fill="#F9A80B"/>
<path d="M83.0585 28.0899C81.5498 28.231 80.1248 28.077 78.7339 27.7556C78.5575 27.2225 78.3755 26.686 78.1688 26.1211C77.3566 23.8857 76.5154 21.5737 76.8584 19.5469C76.8791 19.4205 76.944 19.1215 77.0923 19.0572C77.2652 18.9793 77.7084 19.0603 78.2896 19.4308C78.8885 19.8165 79.4126 20.3706 79.9165 20.9062C81.8701 22.9777 83.7435 25.2042 85.6251 27.626C84.7805 27.8382 83.9321 28.0119 83.0585 28.0899Z" fill="#F9A80B"/>
<path d="M55.3028 14.2976C54.3289 14.5878 53.38 14.8807 52.4451 15.1807C48.0943 12.7288 43.6413 10.2792 39.0662 8.07483C48.7142 7.37187 55.4073 7.06812 61.8744 7.93559C61.8744 7.93559 61.8883 7.93755 61.8966 7.93873C63.2058 8.12357 64.7974 9.18495 64.9497 9.97776C65.0115 10.3047 64.7548 10.6335 64.1841 10.9535C61.5515 12.4355 58.3751 13.3833 55.3028 14.2976Z" fill="#F9A80B"/>
<path d="M85.6384 43.8678C85.4695 43.7161 85.2496 43.5431 85.0114 43.3589C84.594 43.0357 84.0231 42.5915 83.8683 42.2997C83.9118 41.9919 84.1898 41.5923 85.4214 40.9579C87.2962 39.9939 89.1278 39.1545 90.8937 39.4038C91.0358 39.4239 91.1768 39.4509 91.3197 39.4853C91.5863 39.5512 91.8412 39.6813 92.0985 39.7996C92.1101 39.8117 92.1062 39.8309 92.1187 39.8424C92.2295 39.9433 92.3631 40.0034 92.5023 40.023C92.5229 40.0259 92.5426 40.0159 92.5632 40.017C93.6577 40.6709 94.6848 41.8234 95.7195 43.5753C96.4695 44.8431 97.121 46.1851 97.7086 47.6772C97.7949 47.8911 97.9011 48.1248 98.0113 48.3705C98.3626 49.1417 98.8008 50.1027 98.5509 50.6853C98.4616 50.8957 98.3626 50.9329 98.3204 50.9497C97.861 51.1249 96.8159 50.6392 96.1312 50.3181L95.6052 50.0791C93.9085 49.3395 92.2033 48.3985 90.3978 47.2018C90.0004 46.9383 89.5966 46.6796 89.1925 46.4222C87.9702 45.6431 86.7089 44.8372 85.6384 43.8678Z" fill="#F9A80B"/>
<path d="M19.9682 22.2506C16.3741 20.5628 6.89921 13.9863 5.84313 8.46784C5.55262 6.94386 5.92844 5.65033 6.99514 4.51399C7.72227 3.73029 8.83726 3.41896 10.2927 3.19122C10.307 3.18916 10.3222 3.19005 10.3365 3.18799C12.7419 5.74177 15.4696 7.95271 18.4667 9.74593C19.9184 10.6114 21.9025 11.6501 24.0611 11.9549C24.8996 12.0732 25.765 12.0804 26.6362 11.9264C28.0172 11.6825 29.4747 10.7362 29.3999 9.23419C29.3512 8.31112 28.7376 7.62647 28.2079 7.13265C27.4655 6.43548 26.6507 5.82755 25.8617 5.23886C25.3295 4.84146 24.8483 4.44291 24.3622 4.04028C26.1712 4.47362 28.01 5.0081 29.8872 5.68223C37.3723 8.40474 44.4927 12.3565 51.3938 16.2435C51.397 16.255 51.3876 16.2654 51.3915 16.2768C51.4786 16.5447 51.7116 16.7254 51.9735 16.7623C52.0704 16.776 52.1728 16.764 52.2741 16.7357C52.3085 16.7551 52.3437 16.7745 52.3781 16.7939C58.3436 20.1575 64.5117 23.6349 70.914 26.3599L72.0868 26.8664C73.9847 27.6902 75.8291 28.4816 77.7433 28.9985C77.8476 29.0886 77.9742 29.1494 78.1112 29.1687C78.1921 29.1802 78.2743 29.1664 78.3569 29.1498C79.8921 29.5106 81.4784 29.6868 83.186 29.5245C85.4447 29.3221 87.5719 28.6025 89.6275 27.9069C91.3968 27.3073 93.0703 26.7425 94.83 26.4725C96.24 26.2454 97.3532 26.3088 98.2198 26.6698C99.1042 27.0262 99.6006 27.494 99.7391 28.1031C99.9236 28.909 99.6112 30.4572 97.0751 33.2483L96.7781 33.5814C95.3552 35.178 93.9259 36.7724 92.4815 38.3661C92.2187 38.2574 91.9494 38.1583 91.6644 38.0881C89.2332 37.5005 87.0371 38.5072 84.761 39.6773C83.8542 40.1444 82.7755 40.8018 82.4807 41.7431C82.4747 41.7618 82.4798 41.7807 82.4746 41.7993C73.1114 40.4915 64.9216 38.8383 56.8143 36.5951C55.9849 34.88 55.1177 33.129 53.9067 31.5411C51.6153 28.5343 48.7595 27.4123 45.7371 26.2228C45.1287 25.9849 44.5071 25.7395 43.8713 25.4736C41.5307 24.4854 38.7299 24.4223 37.7805 26.4985C37.4358 27.2496 37.4354 28.1785 37.7799 29.2598C37.9184 29.6906 38.091 30.1044 38.2863 30.5032C37.843 30.3417 37.3845 30.1813 36.9405 30.0135C32.9961 28.573 29.2855 26.765 24.9873 24.6709C23.3952 23.895 21.734 23.0852 19.9682 22.2506Z" fill="#F9A80B"/>
</svg>
