<svg width="106" height="64" viewBox="0 0 106 64" fill="none" xmlns="http://www.w3.org/2000/svg">
<path d="M78.8033 7.03053C78.0356 7.65173 77.3101 8.23808 76.6511 8.90672C76.3566 9.20608 75.9628 9.65072 75.9572 10.0606C75.9523 10.6318 76.7785 11.0879 77.5816 11.1965C79.5996 11.4775 81.8584 10.7541 84.6782 8.91682C87.1562 7.29721 89.413 5.36324 91.4342 3.18636C88.3784 3.04845 85.1905 3.34481 81.8837 4.07285C81.5962 4.44509 81.3037 4.81683 80.9642 5.15421C80.2789 5.83618 79.5286 6.44279 78.8033 7.03053Z" fill="#F9A80B"/>
<path d="M44.4934 56.8619C45.1158 56.9361 46.0468 56.4739 46.8372 55.6942C49.3537 53.2101 51.5464 50.376 53.574 47.6876C56.9126 43.2601 60.2018 38.6872 63.3532 34.095C64.187 32.8771 65.134 31.4958 65.5516 30.0018C65.7526 29.2663 65.7527 28.6845 65.5472 28.2772C65.1503 27.493 64.1145 27.3938 63.0655 27.5844C62.4455 27.697 61.8157 27.9129 61.3122 28.1473C60.6771 28.4442 60.0549 28.7173 59.4485 28.9833C56.544 30.2599 54.0341 31.3633 52.0947 34.1286C50.9383 35.7739 50.1603 37.5663 49.3383 39.4625C48.9655 40.3221 48.5902 41.1837 48.1809 42.0314L47.1062 44.2207C46.14 46.1731 45.216 48.0907 44.4865 50.0873L44.3906 50.3463C43.8089 51.9286 42.7257 54.8743 43.5985 56.2325C43.8455 56.6165 44.1374 56.8222 44.4934 56.8619Z" fill="#F9A80B"/>
<path d="M21.6421 30.9996C23.1552 31.0811 24.573 30.8711 25.9501 30.4951C26.1053 29.9556 26.2661 29.4123 26.4503 28.8397C27.1738 26.574 27.9232 24.2307 27.5007 22.219C27.475 22.0935 27.3983 21.7973 27.2476 21.7389C27.0718 21.6679 26.6322 21.7663 26.066 22.1593C25.4827 22.5683 24.9809 23.1427 24.4985 23.6977C22.6281 25.8446 20.8439 28.1431 19.0592 30.6371C19.9115 30.8159 20.7661 30.9561 21.6421 30.9996Z" fill="#F9A80B"/>
<path d="M48.8357 16.1244C49.8202 16.376 50.7799 16.6313 51.7259 16.8942C55.9766 14.2729 60.3296 11.6498 64.8143 9.26683C55.1462 8.94457 48.4464 8.90479 42.0186 10.0264C42.0186 10.0264 42.0047 10.0289 41.9964 10.0304C40.6956 10.2667 39.1471 11.3899 39.0262 12.1881C38.9773 12.5172 39.2467 12.8357 39.8296 13.1329C42.5185 14.51 45.7298 15.3319 48.8357 16.1244Z" fill="#F9A80B"/>
<path d="M19.6865 46.8659C19.8493 46.7077 20.0622 46.5261 20.2929 46.3326C20.6973 45.9933 21.2502 45.5269 21.3934 45.2293C21.3378 44.9235 21.0443 44.5351 19.7887 43.9498C17.8774 43.0604 16.0142 42.2938 14.2594 42.6125C14.1183 42.6382 13.9784 42.6707 13.837 42.7107C13.5732 42.787 13.3236 42.9271 13.0712 43.0555C13.0601 43.068 13.0648 43.087 13.0527 43.099C12.946 43.2042 12.8149 43.2695 12.6765 43.2946C12.6561 43.2983 12.636 43.2891 12.6154 43.291C11.5476 43.9875 10.5667 45.1795 9.60177 46.9708C8.90234 48.2672 8.30429 49.6338 7.77591 51.1479C7.69813 51.365 7.60122 51.6027 7.50079 51.8525C7.18011 52.637 6.78014 53.6145 7.05278 54.1868C7.15036 54.3935 7.25075 54.4268 7.29351 54.4419C7.75945 54.5988 8.78457 54.0724 9.45616 53.7246L9.97224 53.465C11.6385 52.6592 13.3053 51.6517 15.0622 50.3848C15.4489 50.1058 15.8422 49.8314 16.2358 49.5583C17.4265 48.7317 18.655 47.8767 19.6865 46.8659Z" fill="#F9A80B"/>
<path d="M84.4576 22.6802C87.9824 20.8521 97.1907 13.9075 98.0285 8.35176C98.2588 6.81754 97.8323 5.53983 96.7216 4.44642C95.9642 3.69199 94.8378 3.42484 93.3745 3.25462C93.3602 3.25313 93.3451 3.25462 93.3307 3.25312C91.0278 5.89966 88.3894 8.21634 85.4652 10.1262C84.0488 11.0482 82.1072 12.1643 79.9623 12.5539C79.1292 12.7052 78.2647 12.7464 77.3881 12.6269C75.9986 12.4375 74.5049 11.5495 74.5206 10.0457C74.5328 9.12143 75.1189 8.41315 75.6287 7.89884C76.3432 7.17297 77.1333 6.53341 77.8985 5.9141C78.4146 5.49604 78.8797 5.07884 79.3496 4.65738C77.5591 5.16165 75.7428 5.76817 73.8937 6.51573C66.5217 9.53103 59.5627 13.7602 52.8201 17.9161C52.8174 17.9277 52.8272 17.9377 52.8238 17.9492C52.7473 18.2204 52.5215 18.4101 52.2614 18.4573C52.165 18.4748 52.0623 18.4669 51.9599 18.4426C51.9263 18.4633 51.8919 18.4841 51.8583 18.5048C46.0301 22.1008 40.0038 25.8186 33.714 28.7937L32.562 29.346C30.6981 30.2438 28.8863 31.1074 26.9939 31.6993C26.8933 31.7933 26.7692 31.8591 26.6331 31.8838C26.5527 31.8985 26.47 31.8879 26.3868 31.8746C24.867 32.2956 23.2889 32.5342 21.5763 32.4393C19.3114 32.326 17.1576 31.6908 15.0762 31.0768C13.2846 30.5474 11.5901 30.0489 9.82117 29.8484C8.40342 29.6771 7.29358 29.7843 6.44184 30.1792C5.57224 30.5702 5.09461 31.0572 4.98028 31.6712C4.82766 32.4837 5.20077 34.0184 7.84488 36.7074L8.1548 37.0285C9.63948 38.5679 11.1305 40.1047 12.6364 41.6402C12.8949 41.5212 13.1599 41.4116 13.442 41.3302C15.8481 40.6473 18.0822 41.5666 20.4025 42.6462C21.3271 43.0772 22.4308 43.6915 22.7625 44.6205C22.7692 44.6389 22.7648 44.658 22.7708 44.6764C32.0751 43.0007 40.1933 41.0261 48.2058 38.4652C48.967 36.7188 49.7645 34.935 50.9119 33.3006C53.083 30.2059 55.8924 28.9723 58.8656 27.6646C59.4642 27.4029 60.0756 27.1332 60.7004 26.8425C63.0002 25.7629 65.7963 25.5895 66.8268 27.6266C67.2008 28.3635 67.2378 29.2917 66.9362 30.3857C66.8147 30.8216 66.6586 31.2419 66.4792 31.6481C66.9157 31.4693 67.3676 31.2909 67.8046 31.1057C71.6891 29.511 75.3256 27.5582 79.5378 25.2964C81.0982 24.4583 82.7262 23.5837 84.4576 22.6802Z" fill="#F9A80B"/>
</svg>
