<svg width="611" height="242" viewBox="0 0 611 242" fill="none" xmlns="http://www.w3.org/2000/svg">
<g clip-path="url(#clip0_10_127)">
<path d="M209.085 135.067C209.043 135.067 208.996 135.063 208.95 135.058C206.65 134.737 203.882 134.651 201.205 134.568C200.664 134.551 200.237 134.098 200.253 133.554C200.268 133.011 200.752 132.614 201.267 132.602C203.993 132.688 206.815 132.777 209.219 133.111C209.757 133.186 210.133 133.681 210.06 134.221C209.991 134.712 209.569 135.067 209.085 135.067ZM193.379 134.153C193.348 134.153 193.314 134.151 193.279 134.148C190.008 133.819 187.416 133.238 185.35 132.37C184.85 132.16 184.612 131.584 184.824 131.083C185.031 130.582 185.611 130.35 186.11 130.557C187.992 131.348 190.403 131.882 193.479 132.193C194.017 132.247 194.412 132.729 194.358 133.268C194.305 133.775 193.878 134.153 193.379 134.153ZM179.551 127.731C179.244 127.731 178.945 127.589 178.753 127.32C178.48 126.94 178.234 126.544 178.015 126.13C176.859 123.927 176.23 121.671 176.13 119.415C176.107 118.874 176.529 118.415 177.071 118.39C177.662 118.373 178.073 118.788 178.096 119.331C178.18 121.295 178.737 123.273 179.755 125.212C179.931 125.546 180.131 125.869 180.35 126.176C180.665 126.617 180.565 127.232 180.123 127.547C179.951 127.671 179.751 127.731 179.551 127.731ZM245.684 114.456C245.653 114.456 245.623 114.454 245.588 114.452C243.103 114.208 240.527 113.765 237.712 113.097C237.182 112.972 236.856 112.442 236.983 111.914C237.109 111.386 237.624 111.058 238.165 111.184C240.892 111.831 243.384 112.261 245.78 112.494C246.321 112.548 246.717 113.028 246.663 113.569C246.613 114.076 246.183 114.456 245.684 114.456ZM253.529 114.441C253.041 114.441 252.619 114.08 252.554 113.584C252.485 113.047 252.865 112.553 253.402 112.482C255.695 112.185 257.703 111.568 259.374 110.651C259.692 110.472 260.007 110.274 260.314 110.061C260.748 109.754 261.367 109.858 261.681 110.307C261.993 110.752 261.881 111.365 261.436 111.674C261.075 111.925 260.706 112.158 260.326 112.371C258.437 113.41 256.194 114.103 253.656 114.433C253.614 114.439 253.571 114.441 253.529 114.441ZM179.113 112.874C178.933 112.874 178.753 112.826 178.591 112.724C178.13 112.436 177.992 111.829 178.28 111.369C179.674 109.139 181.74 107.183 184.244 105.71L185.208 107.421C183.007 108.719 181.176 110.449 179.947 112.413C179.759 112.711 179.44 112.874 179.113 112.874ZM230.37 110.99C230.274 110.99 230.174 110.975 230.074 110.944C228.304 110.387 226.542 109.8 224.775 109.214L222.59 108.489C222.076 108.32 221.795 107.763 221.964 107.248C222.129 106.73 222.705 106.45 223.205 106.622L225.397 107.348C227.152 107.932 228.907 108.515 230.666 109.07C231.184 109.234 231.472 109.785 231.307 110.303C231.176 110.722 230.789 110.99 230.37 110.99ZM215.382 106.215C215.298 106.215 215.21 106.204 215.121 106.181C212.491 105.455 209.941 104.892 207.553 104.512C207.015 104.426 206.65 103.923 206.735 103.385C206.819 102.851 207.345 102.491 207.86 102.569C210.325 102.963 212.944 103.539 215.644 104.284C216.166 104.43 216.473 104.969 216.331 105.493C216.208 105.929 215.813 106.215 215.382 106.215ZM265.214 105.528C265.157 105.528 265.099 105.522 265.041 105.513C264.508 105.419 264.151 104.908 264.247 104.372C264.308 104.021 264.343 103.666 264.339 103.307L264.331 102.93C264.224 101.306 263.482 99.599 262.127 97.8921C261.793 97.4678 261.862 96.8495 262.288 96.5116C262.711 96.1756 263.333 96.2447 263.671 96.671C265.276 98.6966 266.159 100.77 266.293 102.838L266.305 103.297C266.309 103.769 266.266 104.247 266.182 104.718C266.097 105.194 265.683 105.528 265.214 105.528ZM192.07 104.689C191.62 104.689 191.217 104.382 191.11 103.925C190.991 103.397 191.321 102.869 191.851 102.748C194.316 102.181 197.004 101.895 199.842 101.895C200.383 101.895 200.84 102.335 200.84 102.878C200.84 103.422 200.418 103.861 199.876 103.861C197.154 103.861 194.612 104.132 192.289 104.664C192.216 104.681 192.143 104.689 192.07 104.689ZM256.928 93.2169C256.759 93.2169 256.586 93.1727 256.428 93.0806C254.401 91.8844 252.047 90.8802 249.428 90.093C248.91 89.9375 248.614 89.3884 248.771 88.87C248.925 88.3516 249.466 88.0559 249.996 88.2114C252.765 89.0428 255.265 90.1122 257.427 91.3871C257.895 91.6636 258.049 92.2665 257.772 92.733C257.592 93.0441 257.262 93.2169 256.928 93.2169ZM242.024 88.5052C241.982 88.5052 241.936 88.5013 241.89 88.4956L241.349 88.4226C238.826 88.0866 236.284 87.8812 234.129 87.7257C233.584 87.6853 233.177 87.2149 233.219 86.6735C233.254 86.1321 233.699 85.7154 234.268 85.7634C236.453 85.9228 239.037 86.1301 241.614 86.4757L242.159 86.5487C242.696 86.6236 243.073 87.1189 243 87.6565C242.931 88.1481 242.508 88.5052 242.024 88.5052ZM226.357 87.1477C226.33 87.1477 226.3 87.1458 226.269 87.1439C223.185 86.8674 220.682 86.5314 218.378 86.0879C217.848 85.9842 217.498 85.4677 217.602 84.9359C217.702 84.4021 218.189 84.0546 218.754 84.1564C220.985 84.5884 223.431 84.9148 226.446 85.1855C226.987 85.2335 227.386 85.7116 227.336 86.253C227.29 86.7637 226.86 87.1477 226.357 87.1477ZM210.989 84.0316C210.882 84.0316 210.771 84.0143 210.659 83.974C208.286 83.1311 205.974 82.1192 203.789 80.9653L203.356 80.7388C202.872 80.4911 202.684 79.8978 202.929 79.4139C203.179 78.9301 203.766 78.7439 204.254 78.9877L204.565 79.1509C206.808 80.3355 209.035 81.3109 211.32 82.1231C211.83 82.3036 212.099 82.8661 211.915 83.3768C211.773 83.78 211.393 84.0316 210.989 84.0316ZM197.753 75.9445C197.438 75.9445 197.127 75.7909 196.935 75.5087C195.526 73.4005 194.808 70.8584 194.804 67.9515L194.811 67.4523C194.823 66.9166 195.261 66.4923 195.795 66.4923H195.818C196.363 66.5057 196.789 66.9569 196.778 67.4984L196.77 67.9496C196.774 70.459 197.38 72.6363 198.571 74.4142C198.87 74.8654 198.751 75.476 198.298 75.7794C198.133 75.8907 197.941 75.9445 197.753 75.9445ZM197.48 60.8129C197.365 60.8129 197.25 60.7937 197.139 60.7515C196.628 60.5614 196.371 59.9969 196.559 59.4881C197.688 56.4507 199.066 54.3137 201.028 52.5588C201.432 52.1959 202.054 52.2305 202.419 52.6375C202.78 53.0426 202.745 53.6628 202.342 54.0257C200.629 55.5559 199.412 57.451 198.402 60.1716C198.256 60.5691 197.88 60.8129 197.48 60.8129ZM208.463 50.3796C208.075 50.3796 207.706 50.1473 207.553 49.7652C207.349 49.2622 207.591 48.69 208.094 48.4845C208.467 48.3348 208.851 48.1831 209.25 48.0333C211.335 47.2308 213.485 46.5223 215.644 45.9252C216.181 45.7793 216.707 46.0903 216.853 46.6125C216.995 47.1348 216.688 47.6762 216.166 47.8221C214.073 48.4001 211.98 49.0894 209.949 49.8708C209.557 50.0186 209.188 50.1626 208.831 50.3086C208.712 50.3566 208.586 50.3796 208.463 50.3796Z" fill="#F9A80B"/>
<path d="M209.085 135.067C209.043 135.067 208.996 135.063 208.95 135.058C206.65 134.737 203.882 134.651 201.205 134.568C200.664 134.551 200.237 134.098 200.253 133.554C200.268 133.011 200.752 132.614 201.267 132.602C203.993 132.688 206.815 132.777 209.219 133.111C209.757 133.186 210.133 133.681 210.06 134.221C209.991 134.712 209.569 135.067 209.085 135.067ZM193.379 134.153C193.348 134.153 193.314 134.151 193.279 134.148C190.008 133.819 187.416 133.238 185.35 132.37C184.85 132.16 184.612 131.584 184.824 131.083C185.031 130.582 185.611 130.35 186.11 130.557C187.992 131.348 190.403 131.882 193.479 132.193C194.017 132.247 194.412 132.729 194.358 133.268C194.305 133.775 193.878 134.153 193.379 134.153ZM179.551 127.731C179.244 127.731 178.945 127.589 178.753 127.32C178.48 126.94 178.234 126.544 178.015 126.13C176.859 123.927 176.23 121.671 176.13 119.415C176.107 118.874 176.529 118.415 177.071 118.39C177.662 118.373 178.073 118.788 178.096 119.331C178.18 121.295 178.737 123.273 179.755 125.212C179.931 125.546 180.131 125.869 180.35 126.176C180.665 126.617 180.565 127.232 180.123 127.547C179.951 127.671 179.751 127.731 179.551 127.731ZM245.684 114.456C245.653 114.456 245.623 114.454 245.588 114.452C243.103 114.208 240.527 113.765 237.712 113.097C237.182 112.972 236.856 112.442 236.983 111.914C237.109 111.386 237.624 111.058 238.165 111.184C240.892 111.831 243.384 112.261 245.78 112.494C246.321 112.548 246.717 113.028 246.663 113.569C246.613 114.076 246.183 114.456 245.684 114.456ZM253.529 114.441C253.041 114.441 252.619 114.08 252.554 113.584C252.485 113.047 252.865 112.553 253.402 112.482C255.695 112.185 257.703 111.568 259.374 110.651C259.692 110.472 260.007 110.274 260.314 110.061C260.748 109.754 261.367 109.858 261.681 110.307C261.993 110.752 261.881 111.365 261.436 111.674C261.075 111.925 260.706 112.158 260.326 112.371C258.437 113.41 256.194 114.103 253.656 114.433C253.614 114.439 253.571 114.441 253.529 114.441ZM179.113 112.874C178.933 112.874 178.753 112.826 178.591 112.724C178.13 112.436 177.992 111.829 178.28 111.369C179.674 109.139 181.74 107.183 184.244 105.71L185.208 107.421C183.007 108.719 181.176 110.449 179.947 112.413C179.759 112.711 179.44 112.874 179.113 112.874ZM230.37 110.99C230.274 110.99 230.174 110.975 230.074 110.944C228.304 110.387 226.542 109.8 224.775 109.214L222.59 108.489C222.076 108.32 221.795 107.763 221.964 107.248C222.129 106.73 222.705 106.45 223.205 106.622L225.397 107.348C227.152 107.932 228.907 108.515 230.666 109.07C231.184 109.234 231.472 109.785 231.307 110.303C231.176 110.722 230.789 110.99 230.37 110.99ZM215.382 106.215C215.298 106.215 215.21 106.204 215.121 106.181C212.491 105.455 209.941 104.892 207.553 104.512C207.015 104.426 206.65 103.923 206.735 103.385C206.819 102.851 207.345 102.491 207.86 102.569C210.325 102.963 212.944 103.539 215.644 104.284C216.166 104.43 216.473 104.969 216.331 105.493C216.208 105.929 215.813 106.215 215.382 106.215ZM265.214 105.528C265.157 105.528 265.099 105.522 265.041 105.513C264.508 105.419 264.151 104.908 264.247 104.372C264.308 104.021 264.343 103.666 264.339 103.307L264.331 102.93C264.224 101.306 263.482 99.599 262.127 97.8921C261.793 97.4678 261.862 96.8495 262.288 96.5116C262.711 96.1756 263.333 96.2447 263.671 96.671C265.276 98.6966 266.159 100.77 266.293 102.838L266.305 103.297C266.309 103.769 266.266 104.247 266.182 104.718C266.097 105.194 265.683 105.528 265.214 105.528ZM192.07 104.689C191.62 104.689 191.217 104.382 191.11 103.925C190.991 103.397 191.321 102.869 191.851 102.748C194.316 102.181 197.004 101.895 199.842 101.895C200.383 101.895 200.84 102.335 200.84 102.878C200.84 103.422 200.418 103.861 199.876 103.861C197.154 103.861 194.612 104.132 192.289 104.664C192.216 104.681 192.143 104.689 192.07 104.689ZM256.928 93.2169C256.759 93.2169 256.586 93.1727 256.428 93.0806C254.401 91.8844 252.047 90.8802 249.428 90.093C248.91 89.9375 248.614 89.3884 248.771 88.87C248.925 88.3516 249.466 88.0559 249.996 88.2114C252.765 89.0428 255.265 90.1122 257.427 91.3871C257.895 91.6636 258.049 92.2665 257.772 92.733C257.592 93.0441 257.262 93.2169 256.928 93.2169ZM242.024 88.5052C241.982 88.5052 241.936 88.5013 241.89 88.4956L241.349 88.4226C238.826 88.0866 236.284 87.8812 234.129 87.7257C233.584 87.6853 233.177 87.2149 233.219 86.6735C233.254 86.1321 233.699 85.7154 234.268 85.7634C236.453 85.9228 239.037 86.1301 241.614 86.4757L242.159 86.5487C242.696 86.6236 243.073 87.1189 243 87.6565C242.931 88.1481 242.508 88.5052 242.024 88.5052ZM226.357 87.1477C226.33 87.1477 226.3 87.1458 226.269 87.1439C223.185 86.8674 220.682 86.5314 218.378 86.0879C217.848 85.9842 217.498 85.4677 217.602 84.9359C217.702 84.4021 218.189 84.0546 218.754 84.1564C220.985 84.5884 223.431 84.9148 226.446 85.1855C226.987 85.2335 227.386 85.7116 227.336 86.253C227.29 86.7637 226.86 87.1477 226.357 87.1477ZM210.989 84.0316C210.882 84.0316 210.771 84.0143 210.659 83.974C208.286 83.1311 205.974 82.1192 203.789 80.9653L203.356 80.7388C202.872 80.4911 202.684 79.8978 202.929 79.4139C203.179 78.9301 203.766 78.7439 204.254 78.9877L204.565 79.1509C206.808 80.3355 209.035 81.3109 211.32 82.1231C211.83 82.3036 212.099 82.8661 211.915 83.3768C211.773 83.78 211.393 84.0316 210.989 84.0316ZM197.753 75.9445C197.438 75.9445 197.127 75.7909 196.935 75.5087C195.526 73.4005 194.808 70.8584 194.804 67.9515L194.811 67.4523C194.823 66.9166 195.261 66.4923 195.795 66.4923H195.818C196.363 66.5057 196.789 66.9569 196.778 67.4984L196.77 67.9496C196.774 70.459 197.38 72.6363 198.571 74.4142C198.87 74.8654 198.751 75.476 198.298 75.7794C198.133 75.8907 197.941 75.9445 197.753 75.9445ZM197.48 60.8129C197.365 60.8129 197.25 60.7937 197.139 60.7515C196.628 60.5614 196.371 59.9969 196.559 59.4881C197.688 56.4507 199.066 54.3137 201.028 52.5588C201.432 52.1959 202.054 52.2305 202.419 52.6375C202.78 53.0426 202.745 53.6628 202.342 54.0257C200.629 55.5559 199.412 57.451 198.402 60.1716C198.256 60.5691 197.88 60.8129 197.48 60.8129ZM208.463 50.3796C208.075 50.3796 207.706 50.1473 207.553 49.7652C207.349 49.2622 207.591 48.69 208.094 48.4845C208.467 48.3348 208.851 48.1831 209.25 48.0333C211.335 47.2308 213.485 46.5223 215.644 45.9252C216.181 45.7793 216.707 46.0903 216.853 46.6125C216.995 47.1348 216.688 47.6762 216.166 47.8221C214.073 48.4001 211.98 49.0894 209.949 49.8708C209.557 50.0186 209.188 50.1626 208.831 50.3086C208.712 50.3566 208.586 50.3796 208.463 50.3796Z" fill="#F9A80B"/>
<path d="M273.709 5.1712C272.526 5.81824 271.409 6.42881 270.361 7.16609C269.892 7.49633 269.255 7.99745 269.147 8.54657C269.001 9.31266 270 10.1267 271.052 10.4685C273.694 11.3383 276.904 10.9178 281.139 9.13794C284.863 7.56713 288.366 5.52016 291.612 3.08943C287.541 2.15871 283.187 1.77903 278.568 1.95015C278.091 2.37999 277.607 2.80791 277.069 3.17823C275.982 3.92704 274.826 4.55872 273.709 5.1712Z" fill="#F9A80B"/>
<path d="M215.464 63.7256C216.282 63.9771 217.645 63.5835 218.897 62.7291C222.883 60.0065 226.519 56.7348 229.898 53.6186C235.462 48.4865 240.996 43.1469 246.349 37.7479C247.766 36.3155 249.375 34.6912 250.3 32.7866C250.75 31.8477 250.892 31.0662 250.715 30.4691C250.373 29.319 249.006 28.9331 247.551 28.9331C246.691 28.9331 245.792 29.0694 245.059 29.2614C244.133 29.5053 243.231 29.7203 242.351 29.9296C238.139 30.9357 234.499 31.8054 231.219 35.0464C229.265 36.9741 227.782 39.1917 226.216 41.538C225.505 42.6016 224.791 43.6672 224.035 44.706L222.057 47.3844C220.283 49.7709 218.574 52.121 217.107 54.6247L216.915 54.9492C215.748 56.9326 213.574 60.6247 214.415 62.6619C214.653 63.2379 214.995 63.5854 215.464 63.7256Z" fill="#F9A80B"/>
<path d="M191.092 23.4188C193.104 23.8973 195.06 23.9612 197.001 23.7922C197.341 23.1053 197.689 22.4149 198.077 21.6908C199.601 18.8242 201.179 15.8597 201.103 13.0546C201.099 12.8799 201.068 12.4632 200.88 12.348C200.661 12.2098 200.047 12.2347 199.19 12.6245C198.307 13.0315 197.493 13.6805 196.71 14.3083C193.674 16.7355 190.716 19.3875 187.711 22.3018C188.812 22.7499 189.926 23.1466 191.092 23.4188Z" fill="#F9A80B"/>
<path d="M231.241 10.0728C232.501 10.651 233.728 11.228 234.935 11.8119C241.283 9.32811 247.77 6.8669 254.375 4.76042C241.468 1.96897 232.479 0.28104 223.572 0.21936C223.572 0.21936 223.553 0.21936 223.541 0.21936C221.736 0.21936 219.383 1.35024 219.025 2.39281C218.88 2.82289 219.164 3.31633 219.874 3.85777C223.15 6.36338 227.262 8.25075 231.241 10.0728Z" fill="#F9A80B"/>
<path d="M184.592 44.2529C184.849 44.0801 185.179 43.8881 185.536 43.6846C186.162 43.3274 187.019 42.8359 187.284 42.4711C187.284 42.0468 186.984 41.4535 185.44 40.361C183.09 38.7002 180.775 37.2161 178.34 37.2161C178.144 37.2161 177.949 37.2257 177.749 37.2449C177.376 37.283 177.007 37.4102 176.636 37.5211C176.618 37.5353 176.62 37.5619 176.601 37.5751C176.432 37.6903 176.24 37.746 176.048 37.746C176.019 37.746 175.995 37.7287 175.967 37.7263C174.362 38.4012 172.754 39.763 171.021 41.9335C169.765 43.5041 168.629 45.1937 167.55 47.0983C167.392 47.371 167.204 47.6667 167.008 47.9777C166.386 48.9531 165.611 50.1684 165.837 51.0036C165.918 51.3051 166.045 51.3742 166.098 51.4049C166.686 51.7294 168.191 51.2724 169.178 50.9691L169.934 50.7464C172.369 50.0705 174.853 49.1239 177.522 47.851C178.11 47.5707 178.705 47.298 179.3 47.0273C181.101 46.2075 182.96 45.3588 184.592 44.2529Z" fill="#F9A80B"/>
<path d="M277.484 27.566C282.664 25.9704 296.727 18.8895 299.207 11.6318C299.891 9.62734 299.63 7.80718 298.405 6.06765C297.571 4.86957 296.124 4.23596 294.2 3.65036C294.181 3.64484 294.16 3.64316 294.141 3.63764C290.403 6.63045 286.294 9.09838 281.9 10.9502C279.773 11.843 276.893 12.8683 273.917 12.8683C272.761 12.8683 271.59 12.7128 270.442 12.3384C268.622 11.7451 266.832 10.188 267.22 8.17198C267.462 6.93357 268.422 6.12525 269.232 5.55885C270.369 4.7582 271.586 4.09196 272.765 3.44684C273.56 3.01124 274.286 2.56436 275.02 2.11292C272.492 2.3534 269.905 2.72492 267.239 3.27788C256.602 5.52933 246.223 9.5119 236.153 13.4489C236.147 13.4638 236.158 13.4796 236.15 13.4942C235.981 13.8398 235.632 14.0395 235.271 14.0395C235.137 14.0395 235.001 14.0038 234.87 13.9462C234.82 13.9658 234.768 13.9853 234.718 14.005C226.013 17.413 217.012 20.9362 207.838 23.3976L206.156 23.8584C203.433 24.6096 200.789 25.3275 198.103 25.6608C197.945 25.7626 197.762 25.8207 197.574 25.8207C197.462 25.8207 197.353 25.7864 197.245 25.7482C195.101 25.9428 192.923 25.8783 190.646 25.333C187.632 24.6284 184.894 23.2498 182.248 21.9173C179.971 20.7691 177.817 19.6863 175.49 18.9855C173.627 18.4095 172.11 18.2827 170.87 18.6053C169.607 18.9183 168.846 19.4559 168.543 20.2527C168.14 21.3067 168.267 23.4591 171.162 27.7157L171.5 28.2226C173.118 30.6524 174.746 33.0802 176.394 35.51C176.77 35.4133 177.153 35.3307 177.552 35.2902C180.95 34.9599 183.726 36.7398 186.58 38.7558C187.716 39.5603 189.049 40.6547 189.268 41.9833C189.272 42.0097 189.262 42.0342 189.265 42.0603C202.171 42.0795 213.556 41.408 224.943 39.9231C226.391 37.7631 227.897 35.5618 229.837 33.6466C233.508 30.0197 237.583 29.0482 241.895 28.0172C242.763 27.8117 243.65 27.5986 244.56 27.3605C247.912 26.4716 251.71 26.9208 252.597 29.9084C252.92 30.9893 252.743 32.245 252.071 33.6409C251.802 34.1967 251.489 34.723 251.149 35.2249C251.779 35.0912 252.43 34.9618 253.062 34.8198C258.668 33.6255 264.029 31.8898 270.238 29.8796C272.538 29.1346 274.938 28.357 277.484 27.566Z" fill="#F9A80B"/>
<path d="M281.445 149.105C281.483 149.113 281.524 149.126 281.564 149.14C283.548 149.907 286.028 150.523 288.427 151.117C288.912 151.238 289.158 151.784 288.976 152.338C288.793 152.892 288.232 153.207 287.762 153.121C285.32 152.513 282.791 151.885 280.717 151.085C280.253 150.906 280.066 150.326 280.299 149.787C280.514 149.296 281.007 149.013 281.445 149.105ZM295.387 153.033C295.415 153.039 295.445 153.047 295.476 153.058C298.337 154.017 300.505 155.107 302.107 156.39C302.494 156.7 302.531 157.336 302.185 157.809C301.842 158.283 301.245 158.411 300.857 158.103C299.398 156.934 297.379 155.928 294.689 155.023C294.219 154.866 294.01 154.296 294.226 153.754C294.431 153.244 294.935 152.938 295.387 153.033ZM305.922 162.249C306.2 162.308 306.427 162.51 306.518 162.822C306.647 163.264 306.747 163.716 306.817 164.183C307.182 166.66 307.053 169.093 306.445 171.424C306.298 171.983 305.773 172.373 305.275 172.296C304.734 172.201 304.49 171.698 304.638 171.136C305.17 169.107 305.278 166.974 304.957 164.792C304.901 164.416 304.82 164.048 304.716 163.691C304.568 163.179 304.849 162.568 305.346 162.329C305.542 162.234 305.741 162.211 305.922 162.249ZM241.911 163.26C241.938 163.266 241.966 163.274 241.996 163.283C244.171 164.006 246.367 164.951 248.71 166.172C249.151 166.401 249.283 167.006 249.004 167.523C248.726 168.04 248.158 168.279 247.707 168.046C245.438 166.863 243.314 165.948 241.216 165.253C240.742 165.095 240.532 164.528 240.749 163.983C240.951 163.473 241.458 163.165 241.911 163.26ZM234.8 161.782C235.242 161.875 235.513 162.325 235.418 162.845C235.314 163.41 234.817 163.843 234.308 163.813C232.14 163.682 230.13 163.931 228.332 164.554C227.988 164.676 227.642 164.819 227.298 164.979C226.81 165.211 226.282 164.987 226.136 164.466C225.992 163.951 226.283 163.344 226.782 163.112C227.187 162.923 227.592 162.755 228.003 162.609C230.036 161.904 232.282 161.621 234.683 161.766C234.723 161.768 234.762 161.774 234.8 161.782ZM301.716 177.561C301.879 177.595 302.028 177.679 302.142 177.814C302.47 178.197 302.408 178.845 302.004 179.262C300.051 181.281 297.574 182.893 294.85 183.926L294.507 181.989C296.902 181.078 299.097 179.653 300.818 177.874C301.081 177.605 301.42 177.498 301.716 177.561ZM254.707 169.729C254.794 169.747 254.88 169.782 254.961 169.833C256.392 170.741 257.806 171.678 259.225 172.615L260.979 173.775C261.393 174.046 261.474 174.67 261.162 175.166C260.851 175.665 260.243 175.843 259.844 175.571L258.083 174.409C256.674 173.477 255.266 172.544 253.845 171.641C253.426 171.375 253.336 170.755 253.646 170.255C253.894 169.851 254.328 169.649 254.707 169.729ZM266.803 177.478C266.879 177.494 266.956 177.523 267.029 177.563C269.186 178.808 271.321 179.87 273.367 180.715C273.827 180.906 274.002 181.491 273.759 182.026C273.517 182.557 272.929 182.826 272.487 182.648C270.376 181.775 268.182 180.686 265.968 179.408C265.54 179.159 265.429 178.547 265.72 178.037C265.966 177.614 266.413 177.396 266.803 177.478ZM221.455 168.692C221.508 168.703 221.558 168.72 221.607 168.74C222.062 168.938 222.227 169.53 221.974 170.061C221.809 170.409 221.668 170.767 221.56 171.135L221.451 171.523C221.045 173.208 221.187 175.099 221.886 177.106C222.057 177.605 221.803 178.225 221.313 178.49C220.826 178.754 220.284 178.565 220.11 178.064C219.284 175.682 219.126 173.388 219.645 171.243L219.777 170.771C219.919 170.286 220.106 169.804 220.328 169.338C220.552 168.866 221.031 168.602 221.455 168.692ZM287.445 183.482C287.852 183.568 288.122 183.96 288.078 184.448C288.022 185.012 287.56 185.491 287.042 185.514C284.634 185.625 282.11 185.406 279.54 184.866C279.05 184.762 278.772 184.225 278.94 183.668C279.109 183.111 279.628 182.741 280.118 182.844C282.584 183.362 284.97 183.569 287.239 183.466C287.311 183.462 287.379 183.469 287.445 183.482ZM225.147 182.888C225.3 182.921 225.443 182.999 225.557 183.123C227.023 184.735 228.844 186.213 230.972 187.519C231.393 187.777 231.491 188.396 231.188 188.897C230.888 189.399 230.306 189.599 229.874 189.339C227.624 187.96 225.691 186.387 224.128 184.669C223.79 184.296 223.837 183.649 224.232 183.223C224.492 182.939 224.845 182.825 225.147 182.888ZM237.186 190.556C237.224 190.564 237.265 190.577 237.305 190.592L237.772 190.769C239.953 191.594 242.192 192.289 244.095 192.859C244.577 193.004 244.8 193.564 244.594 194.111C244.395 194.659 243.862 195.001 243.362 194.844C241.433 194.264 239.156 193.559 236.929 192.715L236.458 192.536C235.994 192.357 235.807 191.777 236.04 191.24C236.254 190.75 236.748 190.464 237.186 190.556ZM250.956 194.931C250.98 194.937 251.007 194.944 251.035 194.952C253.742 195.823 255.905 196.644 257.855 197.537C258.303 197.745 258.459 198.341 258.2 198.866C257.945 199.394 257.395 199.657 256.916 199.446C255.029 198.578 252.914 197.777 250.268 196.926C249.792 196.773 249.579 196.207 249.792 195.662C249.992 195.147 250.5 194.836 250.956 194.931ZM263.91 201.052C264.007 201.073 264.102 201.112 264.191 201.174C266.079 202.49 267.859 203.967 269.481 205.566L269.804 205.881C270.165 206.227 270.152 206.871 269.779 207.32C269.403 207.769 268.814 207.848 268.447 207.505L268.216 207.278C266.552 205.637 264.837 204.213 263.019 202.945C262.613 202.663 262.543 202.035 262.869 201.547C263.122 201.161 263.544 200.975 263.91 201.052ZM273.393 211.862C273.678 211.922 273.912 212.139 273.999 212.465C274.622 214.894 274.485 217.636 273.588 220.616L273.426 221.127C273.25 221.673 272.722 222.025 272.239 221.923L272.218 221.919C271.728 221.801 271.482 221.258 271.66 220.705L271.807 220.244C272.581 217.671 272.706 215.324 272.178 213.275C272.047 212.755 272.344 212.152 272.848 211.928C273.032 211.845 273.223 211.826 273.393 211.862ZM268.952 227.424C269.057 227.445 269.155 227.487 269.243 227.552C269.647 227.844 269.705 228.471 269.377 228.957C267.413 231.855 265.503 233.783 263.182 235.208C262.704 235.503 262.151 235.349 261.947 234.863C261.746 234.379 261.969 233.749 262.447 233.454C264.472 232.212 266.162 230.502 267.919 227.905C268.174 227.526 268.591 227.347 268.952 227.424ZM255.773 236.026C256.124 236.1 256.386 236.408 256.407 236.829C256.436 237.383 256.039 237.924 255.52 238.038C255.136 238.121 254.741 238.203 254.333 238.281C252.196 238.706 250.029 239.023 247.889 239.224C247.357 239.271 246.977 238.852 247.007 238.289C247.04 237.726 247.486 237.23 248.004 237.18C250.079 236.986 252.188 236.678 254.27 236.264C254.67 236.187 255.049 236.11 255.417 236.028C255.54 236.002 255.662 236.002 255.773 236.026Z" fill="#F9A80B"/>
<path d="M35.6987 131.245C31.2275 131.245 27.5891 130.763 24.7836 129.799C22.0658 128.834 20.2247 127.607 19.2603 126.116C18.8219 125.503 18.4274 124.582 18.0767 123.355C17.726 122.127 17.8575 120.769 18.4712 119.278C19.6987 120.242 21.0137 120.988 22.4165 121.514C23.9069 121.952 25.2658 122.259 26.4932 122.434C27.9836 122.697 29.4302 122.829 30.8329 122.829C33.4631 122.829 36.0056 122.61 38.4604 122.171C41.0028 121.733 43.5015 121.119 45.9563 120.33C47.0083 115.07 48.0166 110.336 48.981 106.127C50.033 101.919 51.2166 98.4999 52.5317 95.8698C53.9344 92.9766 55.381 90.3903 56.8714 88.1109C58.4495 85.7437 60.1591 83.7711 62.0002 82.193C63.929 80.5273 66.0331 79.256 68.3125 78.3793C70.592 77.5026 73.2221 77.0642 76.203 77.0642C78.3948 77.0642 80.1044 77.5026 81.3318 78.3793C82.6468 79.256 83.6112 80.3519 84.2249 81.667C84.9263 82.9821 85.3208 84.4286 85.4085 86.0067C85.5838 87.4972 85.6715 88.8999 85.6715 90.215C85.6715 93.1081 84.9701 96.2643 83.5674 99.6835C82.1646 103.103 80.192 106.478 77.6496 109.81C75.1071 113.141 72.0386 116.297 68.444 119.278C64.9372 122.259 60.992 124.714 56.6084 126.643C55.118 132.429 53.6275 138.171 52.1371 143.87C50.7344 149.481 49.3316 154.128 47.9289 157.81C46.7015 161.229 45.1234 165.043 43.1946 169.251C41.3535 173.459 39.0741 177.492 36.3562 181.35C38.022 182.402 39.6878 183.498 41.3535 184.637C43.107 185.777 44.8604 186.785 46.6138 187.662C48.3673 188.626 50.1207 189.415 51.8741 190.029C53.7152 190.643 55.644 190.95 57.6604 190.95C59.7646 190.862 61.8248 190.555 63.8413 190.029C65.5947 189.591 67.4358 188.845 69.3646 187.793C71.2934 186.829 73.0906 185.426 74.7564 183.585C75.3701 184.637 75.5454 186.215 75.2824 188.319C75.1071 190.424 74.4495 192.528 73.3098 194.632C72.1701 196.736 70.5482 198.577 68.444 200.155C66.3399 201.733 63.7098 202.522 60.5536 202.522C57.2221 202.522 54.1097 202.04 51.2166 201.076C48.3234 200.199 45.6056 199.103 43.0631 197.788C40.5206 196.473 38.1097 195.026 35.8302 193.448C33.6384 191.958 31.5781 190.555 29.6494 189.24C27.0192 191.782 24.1261 193.843 20.9699 195.421C17.8137 196.999 14.3069 197.788 10.4493 197.788C7.3808 197.788 4.92599 196.911 3.08489 195.158C1.24379 193.492 0.410907 191.213 0.58625 188.319C0.673922 187.267 0.980772 185.996 1.5068 184.506C2.03283 183.103 3.04105 181.744 4.53147 180.429C5.93422 179.114 7.90683 177.974 10.4493 177.01C12.9918 176.133 16.2795 175.695 20.3124 175.695C21.8028 175.695 23.2055 175.826 24.5206 176.089C25.9233 176.44 27.2822 176.834 28.5973 177.273C29.5617 175.519 30.5261 173.503 31.4905 171.223C32.4549 168.944 33.5069 166.358 34.6467 163.465C36.6631 157.941 38.4165 152.418 39.9069 146.895C41.3974 141.284 42.6686 135.848 43.7207 130.588C42.4933 130.851 41.1782 131.026 39.7754 131.114C38.4604 131.201 37.1015 131.245 35.6987 131.245ZM13.8685 190.687C15.0082 190.248 16.3233 189.81 17.8137 189.372C19.3041 188.933 21.0137 187.706 22.9425 185.689C21.6274 185.251 20.6192 185.032 19.9178 185.032C16.7617 185.032 14.4822 185.47 13.0794 186.347C11.589 187.311 10.8438 188.232 10.8438 189.108C10.8438 189.722 11.1068 190.161 11.6329 190.424C12.1589 190.774 12.9041 190.862 13.8685 190.687ZM63.5783 99.1575C63.1399 100.473 62.57 102.401 61.8687 104.944C61.1673 107.486 60.4221 110.423 59.6331 113.755C64.3673 110.686 68.1372 107.179 70.9427 103.234C73.8358 99.289 75.2824 95.3438 75.2824 91.3985C75.2824 89.0314 74.5811 87.8478 73.1783 87.8478C71.9509 87.8478 70.3728 88.8122 68.444 90.741C66.5153 92.5821 64.8933 95.3876 63.5783 99.1575ZM139.853 148.604C137.222 152.462 134.242 156.232 130.91 159.914C127.579 163.508 124.028 166.752 120.258 169.645C116.576 172.451 112.762 174.73 108.817 176.484C104.959 178.237 101.189 179.114 97.5072 179.114C95.5784 179.114 93.4743 178.632 91.1948 177.667C89.003 176.791 86.9866 175.388 85.1455 173.459C83.3044 171.53 81.814 169.032 80.6742 165.963C79.6222 162.895 79.3153 159.169 79.7537 154.785C80.1044 151.191 81.2003 147.421 83.0414 143.475C84.9701 139.443 87.2934 135.76 90.0113 132.429C92.8167 129.097 95.9291 126.336 99.3483 124.144C102.855 121.952 106.362 120.856 109.869 120.856C113.2 120.856 115.611 121.689 117.102 123.355C118.592 125.021 119.25 127.081 119.074 129.536C118.811 132.253 118.022 134.752 116.707 137.032C115.48 139.311 113.989 141.371 112.236 143.212C110.483 145.054 108.598 146.719 106.581 148.21C104.652 149.7 102.811 151.059 101.058 152.286C99.1291 153.602 97.288 154.873 95.5346 156.1C93.7811 157.24 92.2469 158.292 90.9318 159.256C91.0195 161.448 91.414 163.289 92.1154 164.78C92.8167 166.27 93.6935 167.497 94.7455 168.462C95.7976 169.339 96.9811 169.996 98.2962 170.434C99.699 170.785 101.102 170.96 102.504 170.96C105.485 170.96 108.598 170.04 111.841 168.199C115.085 166.27 118.241 163.991 121.31 161.36C124.466 158.643 127.359 155.837 129.989 152.944C132.707 150.051 134.943 147.552 136.696 145.448C137.31 144.747 137.924 144.352 138.537 144.264C139.239 144.089 139.765 144.177 140.116 144.528C140.554 144.791 140.773 145.317 140.773 146.106C140.773 146.807 140.466 147.64 139.853 148.604ZM106.187 128.352C105.135 128.352 103.863 128.878 102.373 129.93C100.97 130.982 99.5675 132.517 98.1647 134.533C96.762 136.462 95.4469 138.873 94.2195 141.766C92.9921 144.571 92.0715 147.815 91.4578 151.497C92.5099 150.708 93.6496 149.919 94.877 149.13C96.1044 148.254 97.3318 147.333 98.5592 146.369C102.329 143.475 104.959 140.933 106.45 138.741C107.94 136.549 108.773 134.664 108.948 133.086C109.124 131.421 108.948 130.237 108.422 129.536C107.896 128.747 107.151 128.352 106.187 128.352ZM178.91 142.686C179.261 142.16 179.699 141.854 180.225 141.766C180.839 141.591 181.321 141.634 181.672 141.897C182.023 142.16 182.198 142.599 182.198 143.212C182.286 143.826 182.066 144.659 181.54 145.711C179.787 149.043 177.464 152.637 174.57 156.495C171.765 160.352 168.784 163.991 165.628 167.41C162.472 170.741 159.403 173.503 156.422 175.695C153.442 177.887 150.943 178.982 148.927 178.982C146.033 178.982 143.622 178.413 141.694 177.273C139.765 176.133 138.231 174.73 137.091 173.065C136.039 171.399 135.294 169.602 134.855 167.673C134.417 165.656 134.285 163.815 134.461 162.149C134.548 160.747 134.855 158.248 135.381 154.654C135.907 150.971 136.609 146.763 137.485 142.029C138.362 137.207 139.327 132.078 140.379 126.643C141.518 121.119 142.702 115.815 143.929 110.73C142.439 110.905 140.948 111.081 139.458 111.256C137.968 111.431 136.609 111.519 135.381 111.519C132.576 111.519 129.946 111.212 127.491 110.599C124.948 109.897 123.063 109.24 121.836 108.626C121.135 108.275 120.828 107.793 120.915 107.179C121.003 106.478 121.266 105.821 121.705 105.207C122.143 104.505 122.713 103.936 123.414 103.497C124.028 102.971 124.598 102.708 125.124 102.708C126.789 102.884 128.587 103.059 130.516 103.234C132.444 103.322 134.548 103.322 136.828 103.234C138.494 103.147 140.072 103.015 141.562 102.84C143.14 102.664 144.674 102.445 146.165 102.182C147.305 97.9739 148.401 94.3355 149.453 91.267C150.592 88.1109 151.601 85.9191 152.477 84.6917C152.74 84.2533 153.31 83.9026 154.187 83.6396C155.151 83.2889 156.159 83.0697 157.212 82.9821C158.264 82.8067 159.272 82.8067 160.236 82.9821C161.201 83.0697 161.902 83.3766 162.34 83.9026C162.779 84.604 162.954 86.4013 162.866 89.2944C162.779 92.1876 162.296 95.8698 161.42 100.341C165.102 100.341 168.346 100.56 171.151 100.999C174.044 101.349 176.499 101.788 178.516 102.314C180.532 102.752 182.154 103.234 183.381 103.76C184.609 104.199 185.529 104.505 186.143 104.681C186.757 104.856 187.064 105.294 187.064 105.996C187.151 106.697 187.02 107.442 186.669 108.231C186.406 108.933 185.924 109.547 185.223 110.073C184.521 110.599 183.732 110.774 182.855 110.599C181.979 110.511 180.971 110.336 179.831 110.073C178.779 109.81 177.464 109.59 175.886 109.415C174.395 109.24 172.598 109.064 170.494 108.889C168.39 108.714 165.935 108.626 163.129 108.626C162.603 108.626 161.99 108.67 161.288 108.758C160.675 108.758 160.017 108.758 159.316 108.758C158.965 110.16 158.614 111.563 158.264 112.966C158.001 114.281 157.606 115.684 157.08 117.174C155.94 120.681 154.625 124.495 153.135 128.615C151.82 132.21 150.242 136.33 148.401 140.977C146.559 145.623 144.499 150.577 142.22 155.837C141.694 159.607 141.737 162.5 142.351 164.517C143.053 166.445 143.885 167.848 144.85 168.725C145.99 169.689 147.392 170.215 149.058 170.303C150.373 170.478 151.951 170.04 153.792 168.988C155.721 167.848 157.694 166.358 159.71 164.517C161.727 162.676 163.743 160.659 165.759 158.467C167.864 156.275 169.792 154.128 171.546 152.023C173.299 149.919 174.833 148.034 176.149 146.369C177.464 144.615 178.384 143.388 178.91 142.686ZM218.099 201.865C215.557 201.865 213.058 201.339 210.603 200.287C208.149 199.322 205.957 197.919 204.028 196.078C202.099 194.237 200.565 191.958 199.425 189.24C198.286 186.61 197.803 183.585 197.979 180.166C198.242 174.204 199.425 168.681 201.529 163.596C203.634 158.511 206.088 154.128 208.894 150.445C211.699 146.763 214.549 143.914 217.442 141.897C220.335 139.793 222.746 138.741 224.675 138.741C225.902 138.741 226.998 139.18 227.962 140.056C229.015 140.845 229.804 141.897 230.33 143.212C230.943 144.44 231.294 145.843 231.382 147.421C231.557 148.911 231.382 150.358 230.856 151.76C229.979 151.147 228.357 151.366 225.99 152.418C223.623 153.47 221.168 155.267 218.625 157.81C216.083 160.265 213.804 163.333 211.787 167.015C209.771 170.697 208.631 174.818 208.368 179.377C208.193 182.358 208.324 184.9 208.762 187.004C209.288 189.108 209.99 190.818 210.867 192.133C211.831 193.448 212.883 194.413 214.023 195.026C215.25 195.64 216.521 195.947 217.836 195.947C220.993 195.947 223.886 194.763 226.516 192.396C229.146 190.029 231.557 186.698 233.749 182.402C235.941 178.193 238.001 173.152 239.93 167.278C241.858 161.317 243.7 154.741 245.453 147.552C245.979 145.36 246.637 142.643 247.426 139.399C248.302 136.155 249.223 132.648 250.187 128.878C251.152 125.021 252.16 121.075 253.212 117.042C254.352 112.922 255.404 109.021 256.368 105.338C257.332 101.568 258.253 98.1054 259.13 94.9492C260.006 91.7054 260.708 89.0752 261.234 87.0588C258.341 87.0588 255.448 87.2341 252.554 87.5848C250.1 87.8478 247.557 88.2424 244.927 88.7684C242.297 89.2067 240.105 89.8204 238.352 90.6095C238.176 90.5218 238.045 90.3026 237.957 89.952C237.869 89.5136 237.782 89.0752 237.694 88.6369C237.606 88.1109 237.519 87.541 237.431 86.9273C237.343 86.2259 237.343 85.5245 237.431 84.8232C237.519 84.2095 237.606 83.5519 237.694 82.8506C237.782 82.0615 237.957 81.2725 238.22 80.4834C240.499 79.7821 243.13 79.256 246.11 78.9053C249.179 78.467 252.028 78.1601 254.658 77.9848C257.727 77.7218 260.883 77.5903 264.127 77.5903C266.494 77.5903 268.949 77.7218 271.491 77.9848C273.683 78.1601 276.138 78.4231 278.856 78.7738C281.574 79.1245 284.291 79.6505 287.009 80.3519C287.623 80.9656 288.017 81.667 288.193 82.456C288.281 82.8067 288.324 83.2012 288.324 83.6396C288.324 84.341 288.193 84.9985 287.93 85.6122C287.754 86.1382 287.448 86.7081 287.009 87.3218C286.659 87.8478 286.176 88.2862 285.563 88.6369C284.598 88.3739 283.371 88.1985 281.88 88.1109C280.478 87.9355 279.075 87.7602 277.672 87.5848C276.094 87.4095 274.428 87.278 272.675 87.1903L258.735 149.262C258.384 150.752 257.771 153.119 256.894 156.363C256.017 159.519 254.79 163.07 253.212 167.015C251.721 170.873 249.88 174.862 247.689 178.982C245.584 183.103 243.086 186.829 240.193 190.161C237.299 193.58 234.012 196.385 230.33 198.577C226.647 200.769 222.571 201.865 218.099 201.865ZM315.152 155.048C314.275 158.38 313.092 161.492 311.601 164.385C310.111 167.278 308.313 169.777 306.209 171.881C304.193 173.985 301.87 175.607 299.239 176.747C296.697 177.974 293.891 178.588 290.823 178.588C287.228 178.588 284.379 177.799 282.275 176.221C280.259 174.73 278.724 172.845 277.672 170.566C276.708 168.287 276.138 165.788 275.963 163.07C275.7 160.352 275.568 157.81 275.568 155.443C275.568 153.777 275.787 151.936 276.226 149.919C276.576 147.903 277.102 145.843 277.804 143.738C278.505 141.634 279.382 139.53 280.434 137.426C281.574 135.322 282.889 133.393 284.379 131.64C284.905 130.149 285.694 128.834 286.746 127.695C287.886 126.555 289.157 125.634 290.56 124.933C292.05 124.144 293.628 123.574 295.294 123.223C296.96 122.785 298.582 122.566 300.16 122.566C300.423 122.566 300.642 122.61 300.818 122.697C301.081 122.785 301.344 122.873 301.607 122.96C302.746 123.048 304.149 123.486 305.815 124.275C307.568 125.064 309.234 126.248 310.812 127.826C312.478 129.404 313.881 131.421 315.02 133.875C316.16 136.243 316.73 139.136 316.73 142.555C316.73 143.256 316.686 144.133 316.598 145.185C316.511 146.149 316.423 146.982 316.335 147.684C318.352 146.895 320.456 145.93 322.648 144.791C324.84 143.651 326.944 142.467 328.96 141.24C331.064 139.925 332.993 138.61 334.746 137.295C336.5 135.98 337.903 134.796 338.955 133.744C339.831 132.955 340.577 132.517 341.19 132.429C341.804 132.341 342.242 132.517 342.505 132.955C342.768 133.393 342.812 134.007 342.637 134.796C342.462 135.585 341.979 136.462 341.19 137.426C340.752 137.952 339.612 139.004 337.771 140.582C336.018 142.16 333.914 143.87 331.459 145.711C329.004 147.552 326.33 149.349 323.437 151.103C320.544 152.856 317.782 154.171 315.152 155.048ZM292.927 135.059C292.664 135.848 292.533 136.681 292.533 137.558C292.533 138.96 292.62 140.451 292.796 142.029C292.971 143.519 293.409 144.878 294.111 146.106C294.812 147.333 295.908 148.385 297.398 149.262C298.976 150.051 301.124 150.445 303.842 150.445C304.281 150.445 304.719 150.445 305.157 150.445C305.596 150.358 306.034 150.27 306.472 150.182C306.735 149.043 306.955 148.034 307.13 147.158C307.393 146.193 307.524 145.36 307.524 144.659C307.7 142.993 307.7 141.284 307.524 139.53C307.349 137.777 306.998 136.199 306.472 134.796C306.034 133.306 305.42 132.122 304.631 131.245C303.93 130.281 303.053 129.799 302.001 129.799C300.335 129.799 298.713 130.281 297.135 131.245C295.645 132.122 294.242 133.393 292.927 135.059ZM284.511 158.204C284.511 159.782 284.598 161.36 284.774 162.939C284.949 164.429 285.3 165.788 285.826 167.015C286.352 168.155 287.053 169.119 287.93 169.908C288.807 170.61 289.946 170.96 291.349 170.96C292.927 170.96 294.374 170.61 295.689 169.908C297.004 169.119 298.187 168.155 299.239 167.015C300.292 165.788 301.212 164.429 302.001 162.939C302.878 161.36 303.623 159.739 304.237 158.073C303.623 158.16 303.009 158.248 302.396 158.336C301.87 158.336 301.256 158.336 300.555 158.336C297.223 158.336 294.33 157.371 291.875 155.443C289.508 153.426 287.667 150.884 286.352 147.815C285.826 149.656 285.387 151.454 285.037 153.207C284.686 154.96 284.511 156.626 284.511 158.204ZM345.53 178.062C342.199 178.062 339.481 177.536 337.377 176.484C335.272 175.432 333.607 174.16 332.379 172.67C331.24 171.092 330.407 169.426 329.881 167.673C329.442 165.832 329.223 164.166 329.223 162.676C329.223 160.045 329.442 157.284 329.881 154.391C330.319 151.41 330.845 148.692 331.459 146.237C332.072 143.695 332.598 141.547 333.037 139.793C333.563 138.04 333.914 136.944 334.089 136.506C334.878 133.963 335.886 131.771 337.114 129.93C338.429 128.001 340.226 126.686 342.505 125.985C343.382 125.81 344.303 125.634 345.267 125.459C346.056 125.371 346.845 125.327 347.634 125.327C348.511 125.327 349.3 125.459 350.001 125.722C347.634 131.771 345.749 136.812 344.346 140.845C343.031 144.878 342.023 148.166 341.322 150.708C340.533 153.602 340.051 155.925 339.875 157.678C339.437 161.623 339.788 164.604 340.927 166.621C342.067 168.637 344.39 169.645 347.897 169.645C350.177 169.645 352.368 168.813 354.473 167.147C356.577 165.393 358.505 163.158 360.259 160.44C359.996 159.037 359.864 157.591 359.864 156.1C359.864 153.295 360.084 150.577 360.522 147.947C361.048 145.229 361.618 142.73 362.231 140.451C362.933 138.084 363.634 135.98 364.336 134.138C365.125 132.297 365.782 130.851 366.308 129.799C367.273 127.695 368.149 126.423 368.938 125.985C369.727 125.459 370.999 125.152 372.752 125.064C373.453 124.977 374.023 124.977 374.462 125.064C374.988 125.064 375.426 125.108 375.777 125.196C376.829 125.459 377.355 125.985 377.355 126.774C377.355 128.177 377.267 130.281 377.092 133.086C376.916 135.892 376.39 138.785 375.514 141.766C374.9 144.221 374.286 146.325 373.673 148.078C373.147 149.744 372.621 151.191 372.095 152.418C371.569 153.558 371.042 154.522 370.516 155.311C369.99 156.012 369.508 156.67 369.07 157.284C369.245 159.914 369.464 162.018 369.727 163.596C369.99 165.174 370.297 166.402 370.648 167.278C371.086 168.067 371.569 168.637 372.095 168.988C372.708 169.251 373.366 169.382 374.067 169.382C375.295 169.382 376.741 168.813 378.407 167.673C380.073 166.445 381.782 164.955 383.536 163.202C385.377 161.36 387.174 159.388 388.927 157.284C390.769 155.092 392.434 153.032 393.925 151.103C395.415 149.174 396.686 147.508 397.738 146.106C398.791 144.615 399.448 143.695 399.711 143.344C400.325 142.555 400.895 142.073 401.421 141.897C402.034 141.722 402.517 141.81 402.867 142.16C403.218 142.423 403.393 142.906 403.393 143.607C403.481 144.221 403.306 144.922 402.867 145.711C401.114 149.043 398.922 152.593 396.292 156.363C393.749 160.045 390.988 163.465 388.007 166.621C385.114 169.777 382.177 172.407 379.196 174.511C376.215 176.615 373.41 177.667 370.779 177.667C368.412 177.667 366.527 176.878 365.125 175.3C363.81 173.634 362.67 171.267 361.705 168.199C359.689 171.355 357.322 173.81 354.604 175.563C351.886 177.229 348.862 178.062 345.53 178.062ZM387.349 175.3C386.736 176.265 386.078 176.878 385.377 177.141C384.588 177.492 383.93 177.536 383.404 177.273C382.79 177.097 382.396 176.659 382.221 175.958C382.045 175.256 382.221 174.38 382.747 173.328C383.01 172.802 383.623 171.618 384.588 169.777C385.464 167.936 386.56 165.744 387.875 163.202C389.103 160.571 390.462 157.766 391.952 154.785C393.443 151.717 394.845 148.823 396.16 146.106C397.563 143.388 398.834 140.977 399.974 138.873C401.114 136.681 401.947 135.103 402.473 134.138C401.508 133.262 400.851 132.648 400.5 132.297C400.149 131.859 399.886 130.982 399.711 129.667C399.536 128.527 399.799 127.037 400.5 125.196C401.201 123.355 402.122 121.601 403.262 119.936C404.401 118.182 405.673 116.692 407.075 115.464C408.478 114.237 409.837 113.623 411.152 113.623C413.607 113.623 415.317 114.412 416.281 115.99C417.333 117.568 417.947 119.19 418.122 120.856C418.297 121.996 418.21 123.442 417.859 125.196C417.508 126.949 416.851 128.527 415.886 129.93C416.149 130.106 416.5 130.325 416.939 130.588C417.377 130.763 418.078 130.851 419.043 130.851C420.445 130.851 421.41 130.763 421.936 130.588C422.55 130.412 423.47 130.325 424.697 130.325C426.188 130.325 427.415 130.719 428.38 131.508C429.344 132.21 430.133 133.13 430.747 134.27C431.36 135.322 431.799 136.506 432.062 137.821C432.413 139.048 432.632 140.188 432.719 141.24C432.982 143.432 432.413 145.711 431.01 148.078C429.607 150.445 427.897 153.032 425.881 155.837C424.654 157.591 423.426 159.563 422.199 161.755C420.971 163.947 420.445 165.919 420.621 167.673C420.796 168.813 421.103 169.733 421.541 170.434C421.98 171.136 423.207 171.487 425.223 171.487C426.714 171.487 428.336 170.96 430.089 169.908C431.93 168.769 433.771 167.366 435.613 165.7C437.541 163.947 439.426 162.062 441.267 160.045C443.108 157.941 444.818 155.925 446.396 153.996C447.974 151.98 449.289 150.182 450.341 148.604C451.481 147.026 452.314 145.886 452.84 145.185C453.278 144.484 453.848 144.001 454.55 143.738C455.251 143.475 455.865 143.475 456.391 143.738C456.917 144.001 457.224 144.528 457.311 145.317C457.487 146.106 457.18 147.158 456.391 148.473C455.865 149.349 454.944 150.752 453.629 152.681C452.402 154.61 450.867 156.758 449.026 159.125C447.273 161.492 445.3 163.947 443.108 166.489C440.917 168.944 438.593 171.223 436.139 173.328C433.771 175.344 431.36 177.01 428.906 178.325C426.539 179.64 424.259 180.298 422.067 180.298C419.788 180.298 417.903 179.859 416.412 178.982C414.922 178.106 413.695 177.054 412.73 175.826C411.854 174.511 411.196 173.108 410.758 171.618C410.407 170.04 410.275 168.593 410.363 167.278C410.451 166.226 410.714 165.13 411.152 163.991C411.678 162.763 412.248 161.536 412.862 160.308C413.563 158.993 414.265 157.722 414.966 156.495C415.755 155.18 416.456 153.908 417.07 152.681C418.56 150.138 419.744 147.991 420.621 146.237C421.585 144.396 422.067 142.862 422.067 141.634C422.067 140.845 421.892 140.144 421.541 139.53C421.191 138.917 420.621 138.61 419.832 138.61C419.306 138.61 418.911 138.654 418.648 138.741C418.473 138.741 418.254 138.741 417.991 138.741C417.815 138.741 417.508 138.785 417.07 138.873C416.719 138.873 416.149 138.873 415.36 138.873C414.221 138.873 413.256 138.697 412.467 138.347C411.678 137.996 410.933 137.733 410.232 137.558C409.881 138.171 409.092 139.486 407.865 141.503C406.637 143.519 405.191 145.886 403.525 148.604C401.947 151.322 400.237 154.171 398.396 157.152C396.643 160.133 394.977 162.939 393.399 165.569C391.821 168.111 390.506 170.303 389.453 172.144C388.314 173.897 387.612 174.95 387.349 175.3ZM486.111 179.245C484.095 179.245 482.342 178.851 480.851 178.062C479.448 177.361 478.309 176.396 477.432 175.169C476.555 173.941 475.985 172.539 475.722 170.96C475.459 169.295 475.547 167.541 475.985 165.7C476.248 164.473 476.687 162.851 477.3 160.834C477.914 158.73 478.528 156.495 479.142 154.128C479.843 151.673 480.457 149.262 480.983 146.895C481.596 144.44 481.991 142.248 482.166 140.319C482.342 138.303 482.254 136.681 481.903 135.453C481.552 134.138 480.807 133.481 479.668 133.481C478.265 133.481 476.818 133.963 475.328 134.927C473.837 135.804 472.303 137.032 470.725 138.61C469.235 140.188 467.7 142.029 466.122 144.133C464.632 146.149 463.141 148.254 461.651 150.445C460.862 153.426 460.204 156.056 459.678 158.336C459.152 160.528 458.67 162.544 458.232 164.385C457.881 166.139 457.53 167.717 457.18 169.119C456.829 170.434 456.522 171.706 456.259 172.933C455.996 173.81 455.207 174.687 453.892 175.563C452.577 176.352 451.174 177.01 449.684 177.536C448.193 178.062 446.922 178.325 445.87 178.325C444.73 178.325 444.248 177.93 444.424 177.141C444.511 176.615 444.818 175.432 445.344 173.591C445.782 171.75 446.352 169.602 447.054 167.147C447.667 164.604 448.325 161.93 449.026 159.125C449.728 156.319 450.385 153.645 450.999 151.103C451.437 149.086 451.919 146.851 452.446 144.396C452.884 142.292 453.41 139.837 454.024 137.032C454.725 134.226 455.514 131.158 456.391 127.826C457.004 127.3 457.618 126.906 458.232 126.643C458.933 126.292 459.635 126.029 460.336 125.853C461.037 125.59 461.783 125.415 462.572 125.327C463.273 125.327 463.974 125.371 464.676 125.459C465.289 125.547 465.903 125.722 466.517 125.985C467.218 126.16 467.832 126.467 468.358 126.906C468.095 127.519 467.788 128.396 467.437 129.536C467.087 130.588 466.736 131.727 466.385 132.955C466.035 134.358 465.596 135.804 465.07 137.295C466.21 135.717 467.481 134.138 468.884 132.56C470.374 130.895 471.952 129.404 473.618 128.089C475.372 126.774 477.213 125.722 479.142 124.933C481.07 124.056 483.043 123.618 485.059 123.618C486.725 123.618 488.216 124.1 489.531 125.064C490.846 126.029 491.854 127.388 492.555 129.141C493.344 130.807 493.783 132.823 493.87 135.19C494.046 137.558 493.739 140.144 492.95 142.949L491.503 148.736C491.065 150.577 490.495 152.769 489.794 155.311C489.18 157.766 488.391 160.484 487.426 163.465C486.9 165.393 486.681 167.059 486.769 168.462C486.944 169.865 487.821 170.566 489.399 170.566C490.977 170.566 492.95 169.602 495.317 167.673C497.772 165.744 500.227 163.421 502.681 160.703C505.136 157.985 507.459 155.223 509.651 152.418C511.843 149.525 513.509 147.201 514.648 145.448C515.438 144.308 516.183 143.563 516.884 143.212C517.585 142.862 518.112 142.818 518.462 143.081C518.901 143.344 519.12 143.958 519.12 144.922C519.12 145.799 518.769 146.938 518.068 148.341C517.454 149.569 516.49 151.191 515.175 153.207C513.947 155.223 512.457 157.371 510.703 159.651C508.95 161.93 507.065 164.254 505.048 166.621C503.032 168.9 500.928 171.004 498.736 172.933C496.544 174.774 494.353 176.265 492.161 177.404C490.057 178.632 488.04 179.245 486.111 179.245ZM568.83 148.604C566.199 152.462 563.219 156.232 559.887 159.914C556.555 163.508 553.005 166.752 549.235 169.645C545.553 172.451 541.739 174.73 537.794 176.484C533.936 178.237 530.166 179.114 526.484 179.114C524.555 179.114 522.451 178.632 520.172 177.667C517.98 176.791 515.964 175.388 514.122 173.459C512.281 171.53 510.791 169.032 509.651 165.963C508.599 162.895 508.292 159.169 508.731 154.785C509.081 151.191 510.177 147.421 512.018 143.475C513.947 139.443 516.27 135.76 518.988 132.429C521.794 129.097 524.906 126.336 528.325 124.144C531.832 121.952 535.339 120.856 538.846 120.856C542.177 120.856 544.588 121.689 546.079 123.355C547.569 125.021 548.227 127.081 548.051 129.536C547.788 132.253 546.999 134.752 545.684 137.032C544.457 139.311 542.966 141.371 541.213 143.212C539.46 145.054 537.575 146.719 535.558 148.21C533.629 149.7 531.788 151.059 530.035 152.286C528.106 153.602 526.265 154.873 524.512 156.1C522.758 157.24 521.224 158.292 519.909 159.256C519.996 161.448 520.391 163.289 521.092 164.78C521.794 166.27 522.67 167.497 523.722 168.462C524.775 169.339 525.958 169.996 527.273 170.434C528.676 170.785 530.079 170.96 531.481 170.96C534.462 170.96 537.575 170.04 540.818 168.199C544.062 166.27 547.218 163.991 550.287 161.36C553.443 158.643 556.336 155.837 558.966 152.944C561.684 150.051 563.92 147.552 565.673 145.448C566.287 144.747 566.901 144.352 567.514 144.264C568.216 144.089 568.742 144.177 569.093 144.528C569.531 144.791 569.75 145.317 569.75 146.106C569.75 146.807 569.443 147.64 568.83 148.604ZM535.164 128.352C534.112 128.352 532.84 128.878 531.35 129.93C529.947 130.982 528.544 132.517 527.142 134.533C525.739 136.462 524.424 138.873 523.196 141.766C521.969 144.571 521.049 147.815 520.435 151.497C521.487 150.708 522.627 149.919 523.854 149.13C525.081 148.254 526.309 147.333 527.536 146.369C531.306 143.475 533.936 140.933 535.427 138.741C536.917 136.549 537.75 134.664 537.925 133.086C538.101 131.421 537.925 130.237 537.399 129.536C536.873 128.747 536.128 128.352 535.164 128.352ZM593.947 127.563C595.087 126.686 596.183 126.029 597.235 125.59C598.375 125.064 599.383 124.714 600.26 124.538C601.224 124.275 602.189 124.188 603.153 124.275C605.52 124.451 606.967 125.196 607.493 126.511C608.106 127.826 608.194 129.93 607.756 132.823C607.493 134.314 606.967 136.199 606.178 138.478C605.389 140.758 604.468 143.563 603.416 146.895C602.364 150.138 601.224 153.865 599.997 158.073C598.857 162.281 597.761 167.015 596.709 172.276C595.657 176.571 594.517 181.525 593.29 187.136C592.238 192.045 590.967 197.963 589.476 204.889C588.073 211.815 586.539 219.75 584.873 228.692C584.435 230.884 583.471 232.155 581.98 232.506C580.577 232.857 579.087 232.681 577.509 231.98C576.895 231.629 576.325 231.235 575.799 230.796C575.361 230.358 574.879 229.832 574.353 229.218C573.827 228.692 573.388 227.947 573.038 226.983C575.054 219.618 576.808 212.911 578.298 206.862C579.876 200.813 581.279 195.552 582.506 191.081C583.821 185.908 585.049 181.262 586.188 177.141C586.627 175.3 587.021 173.503 587.372 171.75C587.81 169.908 588.249 168.111 588.687 166.358C587.547 168.199 586.32 169.952 585.005 171.618C583.69 173.284 582.243 174.73 580.665 175.958C579.087 177.185 577.377 178.106 575.536 178.719C573.783 179.421 571.942 179.64 570.013 179.377C565.279 178.763 561.903 177.01 559.887 174.117C557.958 171.223 557.125 167.454 557.388 162.807C557.476 160.966 557.739 158.949 558.177 156.758C558.616 154.566 559.098 152.462 559.624 150.445C560.15 148.429 560.632 146.632 561.071 145.054C561.597 143.388 561.991 142.204 562.254 141.503C563.306 138.171 564.051 135.322 564.49 132.955C565.016 130.588 564.665 128.615 563.438 127.037C564.665 126.248 565.805 125.722 566.857 125.459C567.997 125.108 569.005 124.845 569.882 124.67C570.846 124.582 571.81 124.582 572.775 124.67C575.142 125.021 576.501 125.897 576.851 127.3C577.29 128.703 577.158 130.807 576.457 133.612C576.106 135.103 575.536 137.032 574.747 139.399C573.958 141.678 573.125 144.045 572.249 146.5C571.372 148.955 570.583 151.234 569.882 153.338C569.18 155.355 568.786 156.802 568.698 157.678C567.909 161.623 567.865 164.692 568.566 166.884C569.268 168.988 570.802 170.04 573.169 170.04C574.309 170.04 575.58 169.558 576.983 168.593C578.386 167.541 579.788 166.182 581.191 164.517C582.682 162.851 584.128 160.966 585.531 158.862C586.934 156.67 588.205 154.478 589.345 152.286C590.572 150.095 591.624 147.947 592.501 145.843C593.465 143.738 594.167 141.854 594.605 140.188C595.219 136.944 595.613 134.401 595.788 132.56C595.964 130.719 595.35 129.053 593.947 127.563Z" fill="white"/>
</g>
<defs>
<clipPath id="clip0_10_127">
<rect width="611" height="242" fill="white"/>
</clipPath>
</defs>
</svg>
